<?xml version="1.0" encoding="utf-8"?>
<!-- Generator: Adobe Illustrator 23.0.1, SVG Export Plug-In . SVG Version: 6.00 Build 0)  -->
<svg version="1.1" id="Layer_1" xmlns="http://www.w3.org/2000/svg" xmlns:xlink="http://www.w3.org/1999/xlink" x="0px" y="0px"
	 viewBox="0 0 153 42.94" style="enable-background:new 0 0 153 42.94;" xml:space="preserve">
<style type="text/css">
	.st0{fill:#808080;}
	.st1{fill:#1B1464;}
	.st2{fill:#0071BC;}
	.st3{fill:#29ABE2;}
	.st4{fill:#B2DEF9;}
</style>
<g>
	<g>
		<path class="st0" d="M71.14,17.55h-2.62c-0.29,0-0.52,0.23-0.52,0.52v12.76c0,0.29,0.23,0.52,0.52,0.52h2.62
			c0.29,0,0.52-0.23,0.52-0.52V18.07C71.66,17.78,71.43,17.55,71.14,17.55z"/>
		<path class="st0" d="M69.84,11.75c-0.71,0-1.25,0.2-1.63,0.61c-0.38,0.41-0.57,0.89-0.57,1.44s0.19,1.03,0.57,1.44
			c0.38,0.41,0.92,0.61,1.63,0.61c0.7,0,1.25-0.2,1.63-0.61c0.38-0.41,0.57-0.89,0.57-1.44s-0.19-1.03-0.57-1.44
			C71.08,11.96,70.54,11.75,69.84,11.75z"/>
		<path class="st0" d="M87.37,12.09H76.13c-0.29,0-0.52,0.23-0.52,0.52v18.22c0,0.29,0.23,0.52,0.52,0.52h2.56
			c0.29,0,0.52-0.23,0.52-0.52v-6.96c0-0.29,0.23-0.52,0.52-0.52h7.1c0.29,0,0.52-0.23,0.52-0.52v-2.16c0-0.29-0.23-0.52-0.52-0.52
			h-7.1c-0.29,0-0.52-0.23-0.52-0.52v-3.87c0-0.29,0.23-0.52,0.52-0.52h7.65c0.29,0,0.52-0.23,0.52-0.52v-2.1
			C87.89,12.33,87.66,12.09,87.37,12.09z"/>
		<path class="st0" d="M101.61,19.32c-0.57-0.65-1.29-1.16-2.16-1.54c-0.87-0.38-1.88-0.57-3.04-0.57c-1.16,0-2.18,0.19-3.04,0.57
			c-0.87,0.38-1.59,0.9-2.16,1.54s-1,1.41-1.29,2.3s-0.43,1.82-0.43,2.81c0,1.01,0.14,1.95,0.43,2.83s0.71,1.64,1.29,2.3
			s1.29,1.18,2.16,1.56c0.87,0.38,1.88,0.57,3.04,0.57c1.16,0,2.18-0.19,3.04-0.57s1.59-0.9,2.16-1.56s1-1.42,1.29-2.3
			s0.43-1.82,0.43-2.83c0-0.99-0.14-1.93-0.43-2.81S102.18,19.97,101.61,19.32z M98.86,27.69c-0.53,0.8-1.35,1.2-2.46,1.2
			c-1.1,0-1.92-0.4-2.46-1.2c-0.53-0.8-0.8-1.89-0.8-3.26c0-1.37,0.27-2.45,0.8-3.24c0.53-0.79,1.35-1.19,2.46-1.19
			c1.1,0,1.92,0.4,2.46,1.19c0.53,0.79,0.8,1.87,0.8,3.24C99.66,25.81,99.4,26.89,98.86,27.69z"/>
		<path class="st0" d="M113.18,17.21c-0.44,0-0.83,0.07-1.17,0.2c-0.34,0.13-0.65,0.31-0.91,0.53c-0.27,0.22-0.5,0.47-0.7,0.76
			c-0.2,0.29-0.38,0.58-0.53,0.89l-0.37-1.62c-0.05-0.24-0.26-0.41-0.51-0.41h-2.26c-0.29,0-0.52,0.23-0.52,0.52v12.76
			c0,0.29,0.23,0.52,0.52,0.52h2.62c0.29,0,0.52-0.23,0.52-0.52V22.3c0-0.1,0.02-0.19,0.07-0.28c0.26-0.45,0.61-0.78,1.06-1
			c0.49-0.24,0.99-0.36,1.5-0.36c0.51,0,0.96,0.08,1.35,0.26c0.31,0.13,0.65-0.02,0.73-0.35l0.61-2.62
			c-0.23-0.21-0.52-0.39-0.87-0.53C113.95,17.28,113.58,17.21,113.18,17.21z"/>
		<path class="st0" d="M129.09,17.55h-2.62c-0.29,0-0.52,0.23-0.52,0.52v8.69c0,0.12-0.04,0.25-0.12,0.34
			c-0.39,0.48-0.84,0.89-1.35,1.24c-0.41,0.28-0.9,0.42-1.4,0.43c-0.78,0.02-1.35-0.17-1.72-0.56c-0.35-0.37-0.53-1-0.53-1.87v-8.28
			c0-0.29-0.23-0.52-0.52-0.52h-2.62c-0.29,0-0.52,0.23-0.52,0.52v8.39c0,1.73,0.42,3.04,1.26,3.91s2.02,1.31,3.54,1.31
			c0.46,0,0.89-0.06,1.29-0.19c0.4-0.12,0.77-0.29,1.11-0.5c0.34-0.21,0.65-0.44,0.91-0.69c0.27-0.25,0.49-0.5,0.66-0.77l0.31,1.39
			c0.05,0.24,0.26,0.41,0.51,0.41h2.32c0.29,0,0.52-0.23,0.52-0.52V18.07C129.61,17.78,129.37,17.55,129.09,17.55z"/>
		<path class="st0" d="M152.03,18.49c-0.65-0.86-1.6-1.29-2.86-1.29c-0.97,0-1.84,0.26-2.6,0.79c-0.52,0.36-0.99,0.74-1.41,1.15
			c-0.26,0.25-0.67,0.19-0.84-0.14c-0.23-0.46-0.55-0.84-0.95-1.14c-0.59-0.44-1.33-0.66-2.23-0.66c-0.5,0-0.95,0.07-1.37,0.2
			c-0.42,0.13-0.8,0.31-1.16,0.51s-0.67,0.44-0.94,0.7c-0.28,0.26-0.52,0.5-0.73,0.73l-0.31-1.39c-0.05-0.24-0.26-0.41-0.51-0.41
			h-2.23c-0.29,0-0.52,0.23-0.52,0.52v12.76c0,0.29,0.23,0.52,0.52,0.52h2.53c0.29,0,0.52-0.23,0.52-0.52v-8.7
			c0-0.11,0.03-0.23,0.1-0.32c0.32-0.45,0.72-0.84,1.18-1.15c0.51-0.35,1.09-0.53,1.71-0.53c0.61,0,1,0.21,1.19,0.64
			c0.18,0.43,0.27,1,0.27,1.73v8.34c0,0.29,0.23,0.52,0.52,0.52h2.53c0.29,0,0.52-0.23,0.52-0.52v-8.65v-0.23
			c0.34-0.51,0.77-0.95,1.29-1.3c0.51-0.35,1.09-0.53,1.71-0.53c0.61,0,1,0.21,1.19,0.64c0.18,0.43,0.27,1,0.27,1.73v8.34
			c0,0.29,0.23,0.52,0.52,0.52h2.53c0.29,0,0.52-0.23,0.52-0.52v-8.65C153,20.58,152.68,19.35,152.03,18.49z"/>
		<path class="st0" d="M41.25,8.9c-1.57,0-3.12,0.24-4.63,0.7C32.97,3.95,26.69,0.5,19.92,0.5C8.93,0.5,0,9.43,0,20.42
			c0,5.31,2.15,10.4,5.92,14.14L4.4,40.94c-0.16,0.67,0.12,1.36,0.7,1.74c0.27,0.17,0.58,0.26,0.88,0.26c0.35,0,0.7-0.11,0.99-0.33
			l5.11-3.9c2.5,1.08,5.13,1.62,7.84,1.62c3.93,0,7.68-1.14,10.94-3.3c2.9,2.5,6.54,3.86,10.4,3.86c2.11,0,4.16-0.41,6.11-1.23
			l3.85,2.94c0.29,0.22,0.64,0.33,0.99,0.33c0.31,0,0.62-0.09,0.88-0.26c0.58-0.38,0.86-1.07,0.7-1.74l-1.15-4.83
			c2.94-2.99,4.62-7.02,4.62-11.22C57.25,16.07,50.07,8.9,41.25,8.9z"/>
	</g>
	<g>
		<g>
			<path class="st1" d="M69.84,11.25c0.7,0,1.25,0.2,1.63,0.61c0.38,0.41,0.57,0.89,0.57,1.44s-0.19,1.03-0.57,1.44
				c-0.38,0.41-0.92,0.61-1.63,0.61c-0.71,0-1.25-0.2-1.63-0.61c-0.38-0.41-0.57-0.89-0.57-1.44s0.19-1.03,0.57-1.44
				C68.59,11.46,69.13,11.25,69.84,11.25z M71.14,30.85h-2.62c-0.29,0-0.52-0.23-0.52-0.52V17.57c0-0.29,0.23-0.52,0.52-0.52h2.62
				c0.29,0,0.52,0.23,0.52,0.52v12.76C71.66,30.62,71.43,30.85,71.14,30.85z"/>
			<path class="st1" d="M76.13,11.59h11.25c0.29,0,0.52,0.23,0.52,0.52v2.1c0,0.29-0.23,0.52-0.52,0.52h-7.65
				c-0.29,0-0.52,0.23-0.52,0.52v3.87c0,0.29,0.23,0.52,0.52,0.52h7.1c0.29,0,0.52,0.23,0.52,0.52v2.16c0,0.29-0.23,0.52-0.52,0.52
				h-7.1c-0.29,0-0.52,0.23-0.52,0.52v6.96c0,0.29-0.23,0.52-0.52,0.52h-2.56c-0.29,0-0.52-0.23-0.52-0.52V12.11
				C75.61,11.83,75.84,11.59,76.13,11.59z"/>
			<path class="st1" d="M89.49,23.94c0-0.99,0.14-1.93,0.43-2.81s0.71-1.65,1.29-2.3s1.29-1.16,2.16-1.54
				c0.87-0.38,1.88-0.57,3.04-0.57c1.16,0,2.18,0.19,3.04,0.57c0.87,0.38,1.59,0.9,2.16,1.54s1,1.41,1.29,2.3s0.43,1.82,0.43,2.81
				c0,1.01-0.14,1.95-0.43,2.83s-0.71,1.64-1.29,2.3s-1.29,1.18-2.16,1.56s-1.88,0.57-3.04,0.57c-1.16,0-2.18-0.19-3.04-0.57
				c-0.87-0.38-1.59-0.9-2.16-1.56s-1-1.42-1.29-2.3S89.49,24.95,89.49,23.94z M93.15,23.94c0,1.37,0.27,2.46,0.8,3.26
				c0.53,0.8,1.35,1.2,2.46,1.2c1.1,0,1.92-0.4,2.46-1.2c0.53-0.8,0.8-1.89,0.8-3.26c0-1.37-0.27-2.45-0.8-3.24
				c-0.53-0.79-1.35-1.19-2.46-1.19c-1.1,0-1.92,0.4-2.46,1.19C93.42,21.48,93.15,22.56,93.15,23.94z"/>
			<path class="st1" d="M109.86,19.08c0.15-0.3,0.33-0.6,0.53-0.89c0.2-0.29,0.43-0.54,0.7-0.76c0.27-0.22,0.57-0.4,0.91-0.53
				c0.34-0.13,0.73-0.2,1.17-0.2c0.4,0,0.78,0.07,1.13,0.21c0.35,0.14,0.64,0.32,0.87,0.53l-0.61,2.62
				c-0.08,0.32-0.42,0.48-0.73,0.35c-0.39-0.17-0.84-0.26-1.35-0.26c-0.51,0-1.01,0.12-1.5,0.36c-0.44,0.22-0.8,0.55-1.06,1
				c-0.05,0.08-0.07,0.18-0.07,0.28v8.53c0,0.29-0.23,0.52-0.52,0.52h-2.62c-0.29,0-0.52-0.23-0.52-0.52V17.57
				c0-0.29,0.23-0.52,0.52-0.52h2.26c0.24,0,0.45,0.17,0.51,0.41L109.86,19.08z"/>
			<path class="st1" d="M126.47,17.05h2.62c0.29,0,0.52,0.23,0.52,0.52v12.76c0,0.29-0.23,0.52-0.52,0.52h-2.32
				c-0.24,0-0.45-0.17-0.51-0.41l-0.31-1.39c-0.17,0.27-0.39,0.52-0.66,0.77c-0.27,0.25-0.57,0.48-0.91,0.69
				c-0.34,0.21-0.71,0.38-1.11,0.5c-0.4,0.12-0.83,0.19-1.29,0.19c-1.52,0-2.7-0.44-3.54-1.31s-1.26-2.18-1.26-3.91v-8.39
				c0-0.29,0.23-0.52,0.52-0.52h2.62c0.29,0,0.52,0.23,0.52,0.52v8.28c0,0.88,0.18,1.5,0.53,1.87c0.37,0.39,0.94,0.57,1.72,0.56
				c0.49-0.01,0.99-0.15,1.4-0.43c0.51-0.35,0.95-0.76,1.35-1.24c0.08-0.1,0.12-0.22,0.12-0.34v-8.69
				C125.95,17.28,126.18,17.05,126.47,17.05z"/>
			<path class="st1" d="M136.43,30.85h-2.53c-0.29,0-0.52-0.23-0.52-0.52V17.57c0-0.29,0.23-0.52,0.52-0.52h2.23
				c0.24,0,0.45,0.17,0.51,0.41l0.31,1.39c0.21-0.23,0.45-0.47,0.73-0.73c0.28-0.26,0.59-0.49,0.94-0.7s0.74-0.38,1.16-0.51
				c0.42-0.13,0.88-0.2,1.37-0.2c0.9,0,1.64,0.22,2.23,0.66c0.4,0.3,0.72,0.68,0.95,1.14c0.16,0.32,0.58,0.39,0.84,0.14
				c0.42-0.41,0.89-0.79,1.41-1.15c0.76-0.52,1.63-0.79,2.6-0.79c1.26,0,2.21,0.43,2.86,1.29c0.65,0.86,0.97,2.09,0.97,3.69v8.65
				c0,0.29-0.23,0.52-0.52,0.52h-2.53c-0.29,0-0.52-0.23-0.52-0.52v-8.34c0-0.72-0.09-1.3-0.27-1.73c-0.18-0.43-0.58-0.64-1.19-0.64
				c-0.63,0-1.2,0.18-1.71,0.53c-0.51,0.35-0.94,0.79-1.29,1.3v0.23v8.65c0,0.29-0.23,0.52-0.52,0.52h-2.53
				c-0.29,0-0.52-0.23-0.52-0.52v-8.34c0-0.72-0.09-1.3-0.27-1.73c-0.18-0.43-0.58-0.64-1.19-0.64c-0.63,0-1.2,0.18-1.71,0.53
				c-0.47,0.32-0.86,0.7-1.18,1.15c-0.07,0.09-0.1,0.21-0.1,0.32v8.7C136.95,30.62,136.71,30.85,136.43,30.85z"/>
		</g>
		<g>
			<path class="st2" d="M35.91,11.06c-3.12-5.62-9.11-9.43-16-9.43c-10.1,0-18.29,8.19-18.29,18.29c0,5.41,2.36,10.25,6.09,13.6
				l-1.74,7.3l5.88-4.5c2.43,1.2,5.16,1.89,8.05,1.89c4.17,0,8-1.41,11.08-3.76c-2.54-2.59-4.11-6.14-4.11-10.05
				C26.88,18.35,30.62,13.18,35.91,11.06z"/>
			<path class="st3" d="M55.62,24.39c0-7.94-6.43-14.37-14.37-14.37c-1.89,0-3.69,0.37-5.34,1.04c1.46,2.62,2.29,5.64,2.29,8.86
				c0,5.93-2.84,11.19-7.21,14.53c2.61,2.66,6.24,4.32,10.26,4.32c2.27,0,4.42-0.54,6.33-1.48l4.62,3.54l-1.37-5.74
				C53.77,32.45,55.62,28.64,55.62,24.39z"/>
			<g>
				<path class="st4" d="M38.21,19.92c0-3.21-0.83-6.23-2.29-8.86c-5.29,2.12-9.03,7.29-9.03,13.33c0,3.91,1.57,7.46,4.11,10.05
					C35.37,31.1,38.21,25.85,38.21,19.92z"/>
				<path class="st1" d="M52.63,35.61c2.94-2.99,4.62-7.02,4.62-11.22c0-8.82-7.18-16-16-16c-1.57,0-3.12,0.24-4.63,0.7
					C32.97,3.45,26.69,0,19.92,0C8.93,0,0,8.93,0,19.92c0,5.31,2.15,10.4,5.92,14.14L4.4,40.44c-0.16,0.67,0.12,1.36,0.7,1.74
					c0.27,0.17,0.58,0.26,0.88,0.26c0.35,0,0.7-0.11,0.99-0.33l5.11-3.9c2.5,1.08,5.13,1.62,7.84,1.62c3.93,0,7.68-1.14,10.94-3.3
					c2.9,2.5,6.54,3.86,10.4,3.86c2.11,0,4.16-0.41,6.11-1.23l3.85,2.94c0.29,0.22,0.64,0.33,0.99,0.33c0.31,0,0.62-0.09,0.88-0.26
					c0.58-0.38,0.86-1.07,0.7-1.74L52.63,35.61z M36.47,21.76c-0.02,0.2-0.06,0.4-0.09,0.6c-0.06,0.41-0.12,0.81-0.21,1.21
					c-0.05,0.23-0.12,0.46-0.18,0.69c-0.1,0.36-0.19,0.71-0.31,1.06c-0.08,0.24-0.17,0.47-0.27,0.7c-0.13,0.33-0.27,0.66-0.42,0.98
					c-0.11,0.23-0.23,0.46-0.34,0.68c-0.16,0.31-0.34,0.61-0.52,0.91c-0.13,0.22-0.27,0.43-0.41,0.64c-0.2,0.29-0.41,0.58-0.63,0.86
					c-0.16,0.2-0.31,0.4-0.47,0.59c-0.24,0.28-0.49,0.55-0.75,0.81c-0.17,0.18-0.34,0.35-0.52,0.52c-0.05,0.05-0.11,0.1-0.17,0.15
					c-0.16-0.2-0.31-0.41-0.45-0.62c-0.04-0.07-0.09-0.13-0.14-0.19c-0.21-0.32-0.4-0.65-0.58-0.98c-0.05-0.1-0.1-0.2-0.15-0.3
					c-0.12-0.24-0.24-0.49-0.34-0.74c-0.05-0.13-0.1-0.26-0.15-0.39c-0.09-0.23-0.17-0.45-0.24-0.69c-0.04-0.14-0.09-0.28-0.13-0.43
					c-0.06-0.23-0.12-0.47-0.17-0.7c-0.03-0.14-0.06-0.28-0.09-0.42c-0.05-0.26-0.08-0.52-0.11-0.78c-0.01-0.12-0.03-0.24-0.05-0.37
					c-0.03-0.38-0.06-0.77-0.06-1.16c0-0.31,0.01-0.62,0.03-0.93c0.01-0.1,0.02-0.2,0.03-0.3c0.02-0.2,0.04-0.41,0.07-0.61
					c0.02-0.12,0.04-0.24,0.06-0.36c0.03-0.18,0.06-0.36,0.1-0.54c0.03-0.12,0.06-0.24,0.09-0.37c0.04-0.17,0.09-0.34,0.14-0.51
					c0.04-0.12,0.08-0.25,0.12-0.37c0.05-0.16,0.11-0.33,0.17-0.49c0.04-0.12,0.09-0.24,0.14-0.36c0.07-0.16,0.14-0.32,0.21-0.48
					c0.05-0.11,0.11-0.23,0.16-0.34c0.08-0.16,0.16-0.31,0.25-0.47c0.06-0.11,0.12-0.21,0.18-0.32c0.09-0.16,0.2-0.32,0.3-0.48
					c0.06-0.09,0.12-0.19,0.18-0.28c0.13-0.19,0.26-0.37,0.4-0.54c0.04-0.06,0.08-0.12,0.13-0.17c0.18-0.23,0.38-0.46,0.58-0.68
					c0.06-0.06,0.11-0.12,0.17-0.18c0.15-0.16,0.3-0.31,0.46-0.46c0.08-0.08,0.17-0.15,0.25-0.23c0.14-0.12,0.28-0.25,0.42-0.37
					c0.1-0.08,0.2-0.15,0.3-0.23c0.14-0.11,0.28-0.21,0.42-0.32c0.11-0.08,0.21-0.15,0.32-0.22c0.14-0.1,0.29-0.19,0.44-0.28
					c0.11-0.07,0.23-0.14,0.34-0.2c0.07-0.04,0.14-0.07,0.2-0.11c0.02,0.05,0.04,0.1,0.07,0.15c0.2,0.47,0.38,0.94,0.54,1.42
					c0.01,0.04,0.02,0.08,0.04,0.13c0.14,0.46,0.27,0.93,0.37,1.4c0.02,0.09,0.04,0.18,0.06,0.28c0.1,0.49,0.18,0.98,0.23,1.48
					c0.01,0.1,0.02,0.2,0.03,0.3c0.05,0.51,0.08,1.03,0.08,1.55C36.58,20.54,36.54,21.16,36.47,21.76z M19.92,36.58
					c-2.55,0-5.02-0.58-7.33-1.72c-0.55-0.27-1.21-0.21-1.7,0.17l-2.26,1.73l0.68-2.86c0.14-0.58-0.05-1.19-0.5-1.59
					c-3.53-3.17-5.55-7.68-5.55-12.39c0-9.19,7.48-16.67,16.67-16.67c5.47,0,10.55,2.69,13.65,7.12c-0.08,0.05-0.16,0.1-0.25,0.15
					c-0.14,0.08-0.28,0.16-0.41,0.24c-0.19,0.12-0.38,0.24-0.57,0.36c-0.13,0.09-0.26,0.18-0.39,0.27
					c-0.18,0.13-0.36,0.27-0.54,0.41c-0.12,0.09-0.24,0.19-0.36,0.28c-0.18,0.15-0.36,0.3-0.53,0.46c-0.11,0.1-0.21,0.19-0.32,0.29
					c-0.19,0.18-0.37,0.37-0.55,0.56c-0.08,0.08-0.16,0.16-0.24,0.24c-0.25,0.28-0.49,0.56-0.73,0.85c-0.03,0.03-0.05,0.07-0.08,0.1
					c-0.2,0.26-0.4,0.53-0.58,0.8c-0.07,0.11-0.14,0.22-0.21,0.32c-0.13,0.2-0.26,0.41-0.39,0.62c-0.07,0.13-0.14,0.26-0.21,0.39
					c-0.11,0.2-0.22,0.4-0.31,0.6c-0.07,0.14-0.13,0.28-0.2,0.42c-0.09,0.2-0.18,0.4-0.26,0.6c-0.06,0.15-0.12,0.3-0.17,0.45
					c-0.08,0.2-0.15,0.41-0.22,0.62c-0.05,0.15-0.1,0.3-0.14,0.46c-0.06,0.21-0.12,0.43-0.17,0.64c-0.04,0.15-0.08,0.3-0.11,0.46
					c-0.05,0.23-0.09,0.45-0.13,0.68c-0.03,0.15-0.05,0.29-0.08,0.44c-0.04,0.25-0.06,0.51-0.09,0.76
					c-0.01,0.13-0.03,0.26-0.04,0.38c-0.03,0.39-0.04,0.77-0.04,1.17c0,0.49,0.03,0.98,0.07,1.46c0.01,0.16,0.04,0.31,0.06,0.46
					c0.04,0.33,0.08,0.65,0.14,0.97c0.03,0.18,0.07,0.35,0.11,0.53c0.06,0.3,0.14,0.59,0.22,0.88c0.05,0.18,0.1,0.35,0.16,0.53
					c0.09,0.29,0.2,0.58,0.31,0.87c0.06,0.16,0.12,0.32,0.19,0.48c0.14,0.33,0.29,0.65,0.45,0.96c0.06,0.11,0.1,0.22,0.16,0.33
					c0.22,0.42,0.47,0.83,0.73,1.23c0.06,0.09,0.13,0.18,0.19,0.27c0.17,0.25,0.35,0.51,0.53,0.75C25.96,35.74,23,36.58,19.92,36.58
					z M49.75,33.87c-0.44,0.4-0.63,1.01-0.5,1.59l0.31,1.3l-1-0.76c-0.49-0.38-1.15-0.44-1.7-0.17c-1.77,0.87-3.66,1.32-5.61,1.32
					c-2.86,0-5.56-0.93-7.78-2.66c0.03-0.03,0.05-0.06,0.08-0.08c0.44-0.41,0.86-0.84,1.25-1.29c0.07-0.08,0.14-0.16,0.21-0.24
					c0.39-0.45,0.76-0.92,1.11-1.4c0.05-0.07,0.1-0.14,0.14-0.21c0.35-0.51,0.69-1.02,0.99-1.56c0.01-0.02,0.02-0.04,0.03-0.06
					c0.3-0.53,0.57-1.08,0.82-1.64c0.03-0.06,0.06-0.12,0.08-0.18c0.24-0.55,0.45-1.11,0.63-1.68c0.03-0.09,0.06-0.19,0.09-0.28
					c0.18-0.56,0.32-1.13,0.45-1.71c0.02-0.1,0.04-0.2,0.06-0.3c0.12-0.59,0.21-1.18,0.28-1.78c0.01-0.08,0.01-0.16,0.02-0.24
					c0.06-0.63,0.1-1.27,0.1-1.92c0-0.61-0.04-1.21-0.09-1.81c-0.01-0.13-0.02-0.25-0.04-0.38c-0.07-0.58-0.15-1.16-0.27-1.74
					c-0.02-0.1-0.05-0.2-0.07-0.3c-0.12-0.53-0.25-1.06-0.41-1.58c-0.03-0.08-0.05-0.17-0.07-0.25c-0.18-0.56-0.39-1.11-0.62-1.66
					c-0.02-0.06-0.04-0.11-0.06-0.17c1-0.25,2.02-0.38,3.06-0.38c7.03,0,12.75,5.72,12.75,12.75C54,28,52.45,31.45,49.75,33.87z"/>
			</g>
		</g>
	</g>
</g>
</svg>
