<?xml version="1.0" encoding="utf-8"?>
<!-- Generator: Adobe Illustrator 23.0.1, SVG Export Plug-In . SVG Version: 6.00 Build 0)  -->
<svg version="1.1" id="Layer_1" xmlns="http://www.w3.org/2000/svg" xmlns:xlink="http://www.w3.org/1999/xlink" x="0px" y="0px"
	 viewBox="0 0 83.1 19.5" style="enable-background:new 0 0 83.1 19.5;" xml:space="preserve">
<style type="text/css">
	.st0{fill:#8F94B7;}
	.st1{fill:#3C4ED5;}
	.st2{fill:#FFFFFF;}
</style>
<g>
	<g>
		<path class="st0" d="M32.1,9.7c0,0.9-0.2,1.7-0.6,2.4s-0.9,1.1-1.6,1.5S28.4,14,27.5,14h-4.9v-1.5h1.3V6.6h-1.3V5.1h4.8
			c0.9,0,1.7,0.2,2.4,0.5s1.3,0.8,1.7,1.5S32.1,8.6,32.1,9.7z M29.7,9.6c0-1-0.2-1.7-0.7-2.2s-1.1-0.7-2-0.7h-0.8v5.8h0.5
			c0.8,0,1.4-0.1,1.8-0.4s0.7-0.6,0.9-1S29.7,10.1,29.7,9.6z"/>
		<path class="st0" d="M37,12.5V14h-3.8v-1.4h0.9V9.3h-0.9V7.8h2.9v4.7H37z M36.2,6.1c0,0.3-0.1,0.6-0.3,0.8s-0.5,0.3-0.8,0.3
			c-0.3,0-0.6-0.1-0.8-0.3S34,6.4,34,6.1c0-0.3,0.1-0.5,0.3-0.8S34.8,5,35.1,5c0.3,0,0.5,0.1,0.8,0.3S36.2,5.8,36.2,6.1z"/>
		<path class="st0" d="M41.4,8V7.8h1.4v1.8h-1.4C41.3,9.2,40.8,9,40.1,9c-0.6,0-0.8,0.2-0.8,0.5c0,0.1,0.1,0.2,0.2,0.3
			s0.4,0.1,0.7,0.2c0.8,0.1,1.4,0.2,1.9,0.4s0.8,0.4,1,0.7s0.3,0.6,0.3,1c0,0.6-0.2,1.2-0.7,1.5s-1,0.5-1.8,0.5
			c-0.7,0-1.2-0.1-1.5-0.4V14h-1.4v-2.1h1.4c0,0.3,0.2,0.5,0.4,0.7s0.5,0.3,0.9,0.3c0.4,0,0.6,0,0.8-0.1s0.3-0.2,0.3-0.4
			c0-0.1,0-0.2-0.1-0.3s-0.2-0.1-0.4-0.2s-0.5-0.1-0.9-0.2c-0.9-0.1-1.6-0.4-2-0.7s-0.6-0.8-0.6-1.3c0-0.6,0.2-1,0.6-1.3
			c0.4-0.3,1-0.5,1.7-0.5C40.4,7.7,40.9,7.8,41.4,8z"/>
		<path class="st0" d="M49,8.3V7.8h1.3v2.5h-1.4c-0.3-0.7-0.8-1-1.5-1c-0.4,0-0.7,0.2-1,0.5S46,10.4,46,10.9c0,0.5,0.1,0.9,0.4,1.2
			s0.6,0.5,1,0.5c0.3,0,0.6-0.1,0.9-0.3s0.5-0.4,0.7-0.7l1.5,0.7c-0.3,0.6-0.7,1.1-1.2,1.4s-1.1,0.5-1.9,0.5c-1,0-1.9-0.3-2.5-0.9
			S44,11.9,44,10.9c0-0.6,0.1-1.1,0.4-1.6s0.7-0.9,1.1-1.1c0.5-0.3,1-0.4,1.6-0.4C47.7,7.7,48.4,7.9,49,8.3z"/>
		<path class="st0" d="M54.5,12.4c0.3,0,0.7-0.1,1.1-0.4V9.3h-0.9V7.8h2.9v4.7h1V14h-3v-0.5c-0.6,0.4-1.2,0.6-1.8,0.6
			c-0.6,0-1.1-0.2-1.4-0.5c-0.3-0.3-0.5-0.8-0.5-1.4V9.3H51V7.8h2.9v3.9c0,0.3,0,0.5,0.1,0.6S54.3,12.4,54.5,12.4z"/>
		<path class="st0" d="M63,8V7.8h1.4v1.8H63C62.9,9.2,62.4,9,61.7,9c-0.6,0-0.8,0.2-0.8,0.5c0,0.1,0.1,0.2,0.2,0.3s0.4,0.1,0.7,0.2
			c0.8,0.1,1.4,0.2,1.9,0.4s0.8,0.4,1,0.7s0.3,0.6,0.3,1c0,0.6-0.2,1.2-0.7,1.5s-1,0.5-1.8,0.5c-0.7,0-1.2-0.1-1.5-0.4V14h-1.4v-2.1
			h1.4c0,0.3,0.2,0.5,0.4,0.7s0.5,0.3,0.9,0.3c0.4,0,0.6,0,0.8-0.1s0.3-0.2,0.3-0.4c0-0.1,0-0.2-0.1-0.3s-0.2-0.1-0.4-0.2
			s-0.5-0.1-0.9-0.2c-0.9-0.1-1.6-0.4-2-0.7s-0.6-0.8-0.6-1.3c0-0.6,0.2-1,0.6-1.3c0.4-0.3,1-0.5,1.7-0.5C62,7.7,62.5,7.8,63,8z"/>
		<path class="st0" d="M69.3,8V7.8h1.4v1.8h-1.4C69.1,9.2,68.7,9,67.9,9c-0.6,0-0.8,0.2-0.8,0.5c0,0.1,0.1,0.2,0.2,0.3
			s0.4,0.1,0.7,0.2c0.8,0.1,1.4,0.2,1.9,0.4s0.8,0.4,1,0.7s0.3,0.6,0.3,1c0,0.6-0.2,1.2-0.7,1.5s-1,0.5-1.8,0.5
			c-0.7,0-1.2-0.1-1.5-0.4V14h-1.4v-2.1h1.4c0,0.3,0.2,0.5,0.4,0.7s0.5,0.3,0.9,0.3c0.4,0,0.6,0,0.8-0.1s0.3-0.2,0.3-0.4
			c0-0.1,0-0.2-0.1-0.3s-0.2-0.1-0.4-0.2s-0.5-0.1-0.9-0.2c-0.9-0.1-1.6-0.4-2-0.7s-0.6-0.8-0.6-1.3c0-0.6,0.2-1,0.6-1.3
			c0.4-0.3,1-0.5,1.7-0.5C68.3,7.7,68.8,7.8,69.3,8z"/>
		<path class="st0" d="M73.6,9.2h-0.8L72.2,7V5.1h1.9V7L73.6,9.2z"/>
		<path class="st0" d="M79.2,12.5V14h-3.8v-1.4h0.9V9.3h-0.9V7.8h2.9v4.7H79.2z M78.4,6.1c0,0.3-0.1,0.6-0.3,0.8s-0.5,0.3-0.8,0.3
			c-0.3,0-0.6-0.1-0.8-0.3s-0.3-0.5-0.3-0.8c0-0.3,0.1-0.5,0.3-0.8S77,5,77.3,5c0.3,0,0.5,0.1,0.8,0.3S78.4,5.8,78.4,6.1z"/>
		<path class="st0" d="M83.1,7.8v1.4H82v2.7c0,0.2,0,0.3,0.1,0.4s0.2,0.1,0.4,0.1c0.2,0,0.4,0,0.6-0.1v1.4c-0.5,0.2-1,0.3-1.5,0.3
			c-0.5,0-0.9-0.1-1.2-0.4S80,13,80,12.5V9.3h-0.8V7.8H80v-1l2-1.4v2.4H83.1z"/>
	</g>
	<path class="st1" d="M18.9,9.4c0-1.5-0.4-3-1.1-4.3l0,0l-0.1-0.2c0,0,0,0,0-0.1l-0.1-0.2l0,0C15.7,1.4,12-0.4,8.2,0.1
		C4,0.6,0.6,4,0.1,8.2c-0.4,3.1,0.7,6.1,3,8.2l-0.5,2.2c-0.1,0.3,0.1,0.6,0.3,0.8c0.1,0.1,0.3,0.1,0.4,0.1c0.2,0,0.3-0.1,0.5-0.2
		L5.4,18c1.3,0.6,2.6,0.9,4,0.9c2,0,3.9-0.6,5.6-1.8l0,0l0.2-0.1c0,0,0,0,0,0l0.2-0.1l0,0C17.6,15,18.9,12.3,18.9,9.4z"/>
	<path class="st2" d="M14.8,9.7c0,0.9-0.2,1.7-0.6,2.4s-0.9,1.1-1.6,1.5S11.1,14,10.1,14H5.3v-1.5h1.3V6.6H5.3V5.1H10
		c0.9,0,1.7,0.2,2.4,0.5s1.3,0.8,1.7,1.5S14.8,8.6,14.8,9.7z M12.4,9.6c0-1-0.2-1.7-0.7-2.2s-1.1-0.7-2-0.7H8.9v5.8h0.5
		c0.8,0,1.4-0.1,1.8-0.4s0.7-0.6,0.9-1S12.4,10.1,12.4,9.6z"/>
</g>
</svg>
